<svg width="162" height="158" viewBox="0 0 162 158" fill="none" xmlns="http://www.w3.org/2000/svg">
  <g filter="url(#filter0_d_83_7092)">
    <path d="M52.7782 105.33H0.221436L0.221436 52.6782L52.7782 52.6782L52.7782 105.33Z" fill="#FEF9EE" />
  </g>
  <g filter="url(#filter1_d_83_7092)">
    <path
      d="M0.215105 52.6841C14.7296 52.6841 26.4904 64.4724 26.4904 79.0068C26.4904 93.5476 14.7233 105.33 0.215105 105.33V52.6777V52.6841Z"
      fill="#2266D3" />
  </g>
  <g filter="url(#filter2_d_83_7092)">
    <path
      d="M52.772 52.6841C38.2575 52.6841 26.4968 64.4724 26.4968 79.0068C26.4968 93.5476 38.2638 105.33 52.772 105.33V52.6777V52.6841Z"
      fill="#EE9121" />
  </g>
  <g filter="url(#filter3_d_83_7092)">
    <path d="M0.252846 105.291H52.8096V157.943H0.252846V105.291Z" fill="#F9F9F9" />
  </g>
  <g filter="url(#filter4_d_83_7092)">
    <path
      d="M26.5279 122.838C31.3661 122.838 35.2885 126.767 35.2885 131.614C35.2885 136.461 31.3661 140.391 26.5279 140.391C21.6898 140.391 17.7674 136.461 17.7674 131.614C17.7674 126.767 21.6898 122.838 26.5279 122.838Z"
      fill="#EE9121" />
    <path
      d="M26.5279 140.391C31.3661 140.391 35.2885 144.32 35.2885 149.167C35.2885 154.014 31.3661 157.943 26.5279 157.943C21.6898 157.943 17.7674 154.014 17.7674 149.167C17.7674 144.32 21.6898 140.391 26.5279 140.391Z"
      fill="#2A7CE6" />
    <path
      d="M26.5279 105.291C31.3661 105.291 35.2885 109.22 35.2885 114.067C35.2885 118.914 31.3661 122.844 26.5279 122.844C21.6898 122.844 17.7674 118.914 17.7674 114.067C17.7674 109.22 21.6898 105.291 26.5279 105.291Z"
      fill="#2A7CE6" />
    <path
      d="M44.0491 122.838C48.8873 122.838 52.8096 126.767 52.8096 131.614C52.8096 136.461 48.8873 140.391 44.0491 140.391C39.2109 140.391 35.2886 136.461 35.2886 131.614C35.2886 126.767 39.2109 122.838 44.0491 122.838Z"
      fill="#2A7CE6" />
    <path
      d="M44.0491 140.391C48.8873 140.391 52.8096 144.32 52.8096 149.167C52.8096 154.014 48.8873 157.943 44.0491 157.943C39.2109 157.943 35.2886 154.014 35.2886 149.167C35.2886 144.32 39.2109 140.391 44.0491 140.391Z"
      fill="#EE9121" />
    <path
      d="M44.0491 105.291C48.8873 105.291 52.8096 109.22 52.8096 114.067C52.8096 118.914 48.8873 122.844 44.0491 122.844C39.2109 122.844 35.2886 118.914 35.2886 114.067C35.2886 109.22 39.2109 105.291 44.0491 105.291Z"
      fill="#DF7617" />
    <path
      d="M9.01354 122.838C13.8517 122.838 17.774 126.767 17.774 131.614C17.774 136.461 13.8517 140.391 9.01354 140.391C4.17536 140.391 0.253025 136.461 0.253025 131.614C0.253025 126.767 4.17536 122.838 9.01354 122.838Z"
      fill="#2A7CE6" />
    <path
      d="M9.01354 140.391C13.8517 140.391 17.774 144.32 17.774 149.167C17.774 154.014 13.8517 157.943 9.01354 157.943C4.17536 157.943 0.253025 154.014 0.253025 149.167C0.253025 144.32 4.17536 140.391 9.01354 140.391Z"
      fill="#DF7617" />
    <path
      d="M9.01354 105.291C13.8517 105.291 17.774 109.22 17.774 114.067C17.774 118.914 13.8517 122.844 9.01354 122.844C4.17536 122.844 0.253025 118.914 0.253025 114.067C0.253025 109.22 4.17536 105.291 9.01354 105.291Z"
      fill="#EE9121" />
  </g>
  <g filter="url(#filter5_d_83_7092)">
    <path
      d="M52.7903 105.334V131.613C67.3112 131.613 79.0845 143.401 79.0845 157.936C79.0845 157.955 79.0845 157.967 79.0845 157.98H105.379C105.379 128.905 81.832 105.328 52.7903 105.328V105.334Z"
      fill="#1B3B6F" />
  </g>
  <g filter="url(#filter6_d_83_7092)">
    <path d="M157.829 105.254V157.906H105.272V105.254H157.829Z" fill="#F9F9F9" />
  </g>
  <g filter="url(#filter7_d_83_7092)">
    <path d="M157.835 131.576V157.899H131.56C131.56 143.358 143.327 131.576 157.835 131.576Z" fill="#EE9121" />
  </g>
  <g filter="url(#filter8_d_83_7092)">
    <path d="M131.553 131.576V157.899H105.278C105.278 143.358 117.045 131.576 131.553 131.576Z" fill="#2A7CE6" />
  </g>
  <g filter="url(#filter9_d_83_7092)">
    <path d="M157.835 105.254V131.577H131.56C131.56 117.036 143.327 105.254 157.835 105.254Z" fill="#2266D3" />
  </g>
  <g filter="url(#filter10_d_83_7092)">
    <path d="M131.553 105.254V131.577H105.278C105.278 117.036 117.045 105.254 131.553 105.254Z" fill="#EE9121" />
  </g>
  <g filter="url(#filter11_d_83_7092)">
    <path
      d="M0.202072 0V26.3418C0.202072 26.3418 0.227367 26.3418 0.233683 26.3418C14.7482 26.3418 26.5089 38.1364 26.5089 52.6835H52.7399C52.7399 23.5893 29.2185 0.00632759 0.195788 0H0.202072Z"
      fill="#1B3B6F" />
  </g>
  <g filter="url(#filter12_d_83_7092)">
    <path
      d="M0.233968 26.3418C0.233968 26.3418 0.208673 26.3418 0.202356 26.3418V52.6836H26.5155C26.5155 38.1364 14.7485 26.3418 0.240252 26.3418H0.233968Z"
      fill="#FEF9EE" />
  </g>
  <g filter="url(#filter13_d_83_7092)">
    <path d="M52.7843 105.298V52.6465H105.341V105.298H52.7843Z" fill="#F9F9F9" />
  </g>
  <g filter="url(#filter14_d_83_7092)">
    <path
      d="M52.7845 52.6465C67.299 52.6465 79.0598 64.4348 79.0598 78.9693C64.5452 78.9693 52.7845 67.181 52.7845 52.6465Z"
      fill="#4099F1" />
    <path
      d="M79.0595 78.9693C79.0595 64.4285 90.8265 52.6465 105.335 52.6465C105.335 67.1873 93.5677 78.9693 79.0595 78.9693Z"
      fill="#2A7CE6" />
    <path
      d="M52.7845 105.299C52.7845 90.7585 64.5515 78.9766 79.0598 78.9766C79.0598 93.5174 67.2927 105.299 52.7845 105.299Z"
      fill="#2A7CE6" />
    <path
      d="M79.0595 78.9688C93.574 78.9688 105.335 90.7571 105.335 105.292C90.8202 105.292 79.0595 93.5032 79.0595 78.9688Z"
      fill="#64B7F6" />
  </g>
  <defs>
    <filter id="filter0_d_83_7092" x="-3.77856" y="52.6777" width="60.5568" height="60.6523"
      filterUnits="userSpaceOnUse" color-interpolation-filters="sRGB">
      <feFlood flood-opacity="0" result="BackgroundImageFix" />
      <feColorMatrix in="SourceAlpha" type="matrix" values="0 0 0 0 0 0 0 0 0 0 0 0 0 0 0 0 0 0 127 0"
        result="hardAlpha" />
      <feOffset dy="4" />
      <feGaussianBlur stdDeviation="2" />
      <feComposite in2="hardAlpha" operator="out" />
      <feColorMatrix type="matrix" values="0 0 0 0 0 0 0 0 0 0 0 0 0 0 0 0 0 0 0.1 0" />
      <feBlend mode="normal" in2="BackgroundImageFix" result="effect1_dropShadow_83_7092" />
      <feBlend mode="normal" in="SourceGraphic" in2="effect1_dropShadow_83_7092" result="shape" />
    </filter>
    <filter id="filter1_d_83_7092" x="-3.78491" y="52.6777" width="34.2753" height="60.6523"
      filterUnits="userSpaceOnUse" color-interpolation-filters="sRGB">
      <feFlood flood-opacity="0" result="BackgroundImageFix" />
      <feColorMatrix in="SourceAlpha" type="matrix" values="0 0 0 0 0 0 0 0 0 0 0 0 0 0 0 0 0 0 127 0"
        result="hardAlpha" />
      <feOffset dy="4" />
      <feGaussianBlur stdDeviation="2" />
      <feComposite in2="hardAlpha" operator="out" />
      <feColorMatrix type="matrix" values="0 0 0 0 0 0 0 0 0 0 0 0 0 0 0 0 0 0 0.1 0" />
      <feBlend mode="normal" in2="BackgroundImageFix" result="effect1_dropShadow_83_7092" />
      <feBlend mode="normal" in="SourceGraphic" in2="effect1_dropShadow_83_7092" result="shape" />
    </filter>
    <filter id="filter2_d_83_7092" x="22.4968" y="52.6777" width="34.2753" height="60.6523" filterUnits="userSpaceOnUse"
      color-interpolation-filters="sRGB">
      <feFlood flood-opacity="0" result="BackgroundImageFix" />
      <feColorMatrix in="SourceAlpha" type="matrix" values="0 0 0 0 0 0 0 0 0 0 0 0 0 0 0 0 0 0 127 0"
        result="hardAlpha" />
      <feOffset dy="4" />
      <feGaussianBlur stdDeviation="2" />
      <feComposite in2="hardAlpha" operator="out" />
      <feColorMatrix type="matrix" values="0 0 0 0 0 0 0 0 0 0 0 0 0 0 0 0 0 0 0.1 0" />
      <feBlend mode="normal" in2="BackgroundImageFix" result="effect1_dropShadow_83_7092" />
      <feBlend mode="normal" in="SourceGraphic" in2="effect1_dropShadow_83_7092" result="shape" />
    </filter>
    <filter id="filter3_d_83_7092" x="-3.74713" y="105.291" width="60.5568" height="60.6523"
      filterUnits="userSpaceOnUse" color-interpolation-filters="sRGB">
      <feFlood flood-opacity="0" result="BackgroundImageFix" />
      <feColorMatrix in="SourceAlpha" type="matrix" values="0 0 0 0 0 0 0 0 0 0 0 0 0 0 0 0 0 0 127 0"
        result="hardAlpha" />
      <feOffset dy="4" />
      <feGaussianBlur stdDeviation="2" />
      <feComposite in2="hardAlpha" operator="out" />
      <feColorMatrix type="matrix" values="0 0 0 0 0 0 0 0 0 0 0 0 0 0 0 0 0 0 0.1 0" />
      <feBlend mode="normal" in2="BackgroundImageFix" result="effect1_dropShadow_83_7092" />
      <feBlend mode="normal" in="SourceGraphic" in2="effect1_dropShadow_83_7092" result="shape" />
    </filter>
    <filter id="filter4_d_83_7092" x="-3.74695" y="105.291" width="60.5566" height="60.6523"
      filterUnits="userSpaceOnUse" color-interpolation-filters="sRGB">
      <feFlood flood-opacity="0" result="BackgroundImageFix" />
      <feColorMatrix in="SourceAlpha" type="matrix" values="0 0 0 0 0 0 0 0 0 0 0 0 0 0 0 0 0 0 127 0"
        result="hardAlpha" />
      <feOffset dy="4" />
      <feGaussianBlur stdDeviation="2" />
      <feComposite in2="hardAlpha" operator="out" />
      <feColorMatrix type="matrix" values="0 0 0 0 0 0 0 0 0 0 0 0 0 0 0 0 0 0 0.1 0" />
      <feBlend mode="normal" in2="BackgroundImageFix" result="effect1_dropShadow_83_7092" />
      <feBlend mode="normal" in="SourceGraphic" in2="effect1_dropShadow_83_7092" result="shape" />
    </filter>
    <filter id="filter5_d_83_7092" x="48.7903" y="105.328" width="60.5884" height="60.6523" filterUnits="userSpaceOnUse"
      color-interpolation-filters="sRGB">
      <feFlood flood-opacity="0" result="BackgroundImageFix" />
      <feColorMatrix in="SourceAlpha" type="matrix" values="0 0 0 0 0 0 0 0 0 0 0 0 0 0 0 0 0 0 127 0"
        result="hardAlpha" />
      <feOffset dy="4" />
      <feGaussianBlur stdDeviation="2" />
      <feComposite in2="hardAlpha" operator="out" />
      <feColorMatrix type="matrix" values="0 0 0 0 0 0 0 0 0 0 0 0 0 0 0 0 0 0 0.1 0" />
      <feBlend mode="normal" in2="BackgroundImageFix" result="effect1_dropShadow_83_7092" />
      <feBlend mode="normal" in="SourceGraphic" in2="effect1_dropShadow_83_7092" result="shape" />
    </filter>
    <filter id="filter6_d_83_7092" x="101.272" y="105.254" width="60.5568" height="60.6523" filterUnits="userSpaceOnUse"
      color-interpolation-filters="sRGB">
      <feFlood flood-opacity="0" result="BackgroundImageFix" />
      <feColorMatrix in="SourceAlpha" type="matrix" values="0 0 0 0 0 0 0 0 0 0 0 0 0 0 0 0 0 0 127 0"
        result="hardAlpha" />
      <feOffset dy="4" />
      <feGaussianBlur stdDeviation="2" />
      <feComposite in2="hardAlpha" operator="out" />
      <feColorMatrix type="matrix" values="0 0 0 0 0 0 0 0 0 0 0 0 0 0 0 0 0 0 0.1 0" />
      <feBlend mode="normal" in2="BackgroundImageFix" result="effect1_dropShadow_83_7092" />
      <feBlend mode="normal" in="SourceGraphic" in2="effect1_dropShadow_83_7092" result="shape" />
    </filter>
    <filter id="filter7_d_83_7092" x="127.56" y="131.576" width="34.2753" height="34.3223" filterUnits="userSpaceOnUse"
      color-interpolation-filters="sRGB">
      <feFlood flood-opacity="0" result="BackgroundImageFix" />
      <feColorMatrix in="SourceAlpha" type="matrix" values="0 0 0 0 0 0 0 0 0 0 0 0 0 0 0 0 0 0 127 0"
        result="hardAlpha" />
      <feOffset dy="4" />
      <feGaussianBlur stdDeviation="2" />
      <feComposite in2="hardAlpha" operator="out" />
      <feColorMatrix type="matrix" values="0 0 0 0 0 0 0 0 0 0 0 0 0 0 0 0 0 0 0.1 0" />
      <feBlend mode="normal" in2="BackgroundImageFix" result="effect1_dropShadow_83_7092" />
      <feBlend mode="normal" in="SourceGraphic" in2="effect1_dropShadow_83_7092" result="shape" />
    </filter>
    <filter id="filter8_d_83_7092" x="101.278" y="131.576" width="34.2753" height="34.3223" filterUnits="userSpaceOnUse"
      color-interpolation-filters="sRGB">
      <feFlood flood-opacity="0" result="BackgroundImageFix" />
      <feColorMatrix in="SourceAlpha" type="matrix" values="0 0 0 0 0 0 0 0 0 0 0 0 0 0 0 0 0 0 127 0"
        result="hardAlpha" />
      <feOffset dy="4" />
      <feGaussianBlur stdDeviation="2" />
      <feComposite in2="hardAlpha" operator="out" />
      <feColorMatrix type="matrix" values="0 0 0 0 0 0 0 0 0 0 0 0 0 0 0 0 0 0 0.1 0" />
      <feBlend mode="normal" in2="BackgroundImageFix" result="effect1_dropShadow_83_7092" />
      <feBlend mode="normal" in="SourceGraphic" in2="effect1_dropShadow_83_7092" result="shape" />
    </filter>
    <filter id="filter9_d_83_7092" x="127.56" y="105.254" width="34.2753" height="34.3223" filterUnits="userSpaceOnUse"
      color-interpolation-filters="sRGB">
      <feFlood flood-opacity="0" result="BackgroundImageFix" />
      <feColorMatrix in="SourceAlpha" type="matrix" values="0 0 0 0 0 0 0 0 0 0 0 0 0 0 0 0 0 0 127 0"
        result="hardAlpha" />
      <feOffset dy="4" />
      <feGaussianBlur stdDeviation="2" />
      <feComposite in2="hardAlpha" operator="out" />
      <feColorMatrix type="matrix" values="0 0 0 0 0 0 0 0 0 0 0 0 0 0 0 0 0 0 0.1 0" />
      <feBlend mode="normal" in2="BackgroundImageFix" result="effect1_dropShadow_83_7092" />
      <feBlend mode="normal" in="SourceGraphic" in2="effect1_dropShadow_83_7092" result="shape" />
    </filter>
    <filter id="filter10_d_83_7092" x="101.278" y="105.254" width="34.2753" height="34.3223"
      filterUnits="userSpaceOnUse" color-interpolation-filters="sRGB">
      <feFlood flood-opacity="0" result="BackgroundImageFix" />
      <feColorMatrix in="SourceAlpha" type="matrix" values="0 0 0 0 0 0 0 0 0 0 0 0 0 0 0 0 0 0 127 0"
        result="hardAlpha" />
      <feOffset dy="4" />
      <feGaussianBlur stdDeviation="2" />
      <feComposite in2="hardAlpha" operator="out" />
      <feColorMatrix type="matrix" values="0 0 0 0 0 0 0 0 0 0 0 0 0 0 0 0 0 0 0.1 0" />
      <feBlend mode="normal" in2="BackgroundImageFix" result="effect1_dropShadow_83_7092" />
      <feBlend mode="normal" in="SourceGraphic" in2="effect1_dropShadow_83_7092" result="shape" />
    </filter>
    <filter id="filter11_d_83_7092" x="-3.8042" y="0" width="60.5441" height="60.6836" filterUnits="userSpaceOnUse"
      color-interpolation-filters="sRGB">
      <feFlood flood-opacity="0" result="BackgroundImageFix" />
      <feColorMatrix in="SourceAlpha" type="matrix" values="0 0 0 0 0 0 0 0 0 0 0 0 0 0 0 0 0 0 127 0"
        result="hardAlpha" />
      <feOffset dy="4" />
      <feGaussianBlur stdDeviation="2" />
      <feComposite in2="hardAlpha" operator="out" />
      <feColorMatrix type="matrix" values="0 0 0 0 0 0 0 0 0 0 0 0 0 0 0 0 0 0 0.1 0" />
      <feBlend mode="normal" in2="BackgroundImageFix" result="effect1_dropShadow_83_7092" />
      <feBlend mode="normal" in="SourceGraphic" in2="effect1_dropShadow_83_7092" result="shape" />
    </filter>
    <filter id="filter12_d_83_7092" x="-3.79767" y="26.3418" width="34.3132" height="34.3418"
      filterUnits="userSpaceOnUse" color-interpolation-filters="sRGB">
      <feFlood flood-opacity="0" result="BackgroundImageFix" />
      <feColorMatrix in="SourceAlpha" type="matrix" values="0 0 0 0 0 0 0 0 0 0 0 0 0 0 0 0 0 0 127 0"
        result="hardAlpha" />
      <feOffset dy="4" />
      <feGaussianBlur stdDeviation="2" />
      <feComposite in2="hardAlpha" operator="out" />
      <feColorMatrix type="matrix" values="0 0 0 0 0 0 0 0 0 0 0 0 0 0 0 0 0 0 0.1 0" />
      <feBlend mode="normal" in2="BackgroundImageFix" result="effect1_dropShadow_83_7092" />
      <feBlend mode="normal" in="SourceGraphic" in2="effect1_dropShadow_83_7092" result="shape" />
    </filter>
    <filter id="filter13_d_83_7092" x="48.7843" y="52.6465" width="60.5568" height="60.6523"
      filterUnits="userSpaceOnUse" color-interpolation-filters="sRGB">
      <feFlood flood-opacity="0" result="BackgroundImageFix" />
      <feColorMatrix in="SourceAlpha" type="matrix" values="0 0 0 0 0 0 0 0 0 0 0 0 0 0 0 0 0 0 127 0"
        result="hardAlpha" />
      <feOffset dy="4" />
      <feGaussianBlur stdDeviation="2" />
      <feComposite in2="hardAlpha" operator="out" />
      <feColorMatrix type="matrix" values="0 0 0 0 0 0 0 0 0 0 0 0 0 0 0 0 0 0 0.1 0" />
      <feBlend mode="normal" in2="BackgroundImageFix" result="effect1_dropShadow_83_7092" />
      <feBlend mode="normal" in="SourceGraphic" in2="effect1_dropShadow_83_7092" result="shape" />
    </filter>
    <filter id="filter14_d_83_7092" x="48.7845" y="52.6465" width="60.5502" height="60.6523"
      filterUnits="userSpaceOnUse" color-interpolation-filters="sRGB">
      <feFlood flood-opacity="0" result="BackgroundImageFix" />
      <feColorMatrix in="SourceAlpha" type="matrix" values="0 0 0 0 0 0 0 0 0 0 0 0 0 0 0 0 0 0 127 0"
        result="hardAlpha" />
      <feOffset dy="4" />
      <feGaussianBlur stdDeviation="2" />
      <feComposite in2="hardAlpha" operator="out" />
      <feColorMatrix type="matrix" values="0 0 0 0 0 0 0 0 0 0 0 0 0 0 0 0 0 0 0.1 0" />
      <feBlend mode="normal" in2="BackgroundImageFix" result="effect1_dropShadow_83_7092" />
      <feBlend mode="normal" in="SourceGraphic" in2="effect1_dropShadow_83_7092" result="shape" />
    </filter>
  </defs>
</svg>